<?xml version="1.0" encoding="UTF-8" standalone="no"?>
<!DOCTYPE svg PUBLIC "-//W3C//DTD SVG 1.1//EN" "http://www.w3.org/Graphics/SVG/1.1/DTD/svg11.dtd">
<svg width="100%" height="100%" viewBox="0 0 2560 1440" version="1.1" xmlns="http://www.w3.org/2000/svg" xmlns:xlink="http://www.w3.org/1999/xlink" xml:space="preserve" xmlns:serif="http://www.serif.com/" style="fill-rule:evenodd;clip-rule:evenodd;stroke-linecap:round;stroke-linejoin:round;stroke-miterlimit:1.5;">
    <g transform="matrix(1.08106,0,0,1.08106,-132.183,-101.887)">
        <g transform="matrix(0.462925,0,0,0.462925,419.577,574.964)">
            <path d="M1091.48,454.117C1102.43,454.117 1112.41,455.895 1121.44,459.453C1130.47,463.01 1138.27,468.003 1144.84,474.434C1151.41,480.864 1156.47,488.662 1160.03,497.828C1163.58,506.995 1165.36,517.187 1165.36,528.406L1165.36,654L1144.43,654L1144.43,531.279C1144.43,512.125 1139.64,497.486 1130.06,487.362C1120.49,477.238 1107.63,472.176 1091.48,472.176C1075.07,472.176 1062.07,477.238 1052.49,487.362C1042.91,497.486 1038.13,512.125 1038.13,531.279L1038.13,654L1017.19,654L1017.19,380.238L1038.13,380.238L1038.13,479.154C1043.6,471.218 1050.64,465.062 1059.26,460.684C1067.88,456.306 1078.62,454.117 1091.48,454.117Z" style="fill:rgb(201,64,121);fill-rule:nonzero;"/>
            <path d="M1282.34,656.463C1268.93,656.463 1257.64,655.026 1248.48,652.153C1239.31,649.28 1231.85,645.244 1226.11,640.045C1220.36,634.846 1216.19,628.69 1213.59,621.575C1210.99,614.461 1209.69,606.663 1209.69,598.18C1209.69,589.698 1210.99,581.968 1213.59,574.991C1216.19,568.013 1220.36,561.994 1226.11,556.932C1231.85,551.869 1239.31,547.97 1248.48,545.234C1257.64,542.498 1268.93,541.13 1282.34,541.13C1290,541.13 1297.45,541.472 1304.7,542.156C1311.96,542.84 1318.32,543.592 1323.79,544.413C1330.36,545.508 1336.51,546.465 1342.26,547.286L1342.26,524.712C1342.26,489.962 1322.15,472.587 1281.93,472.587C1271.25,472.587 1262.29,473.818 1255.04,476.281C1247.79,478.743 1240.34,482.984 1232.67,489.004L1224.46,470.945C1230.76,466.293 1238.9,462.326 1248.88,459.042C1258.87,455.759 1270.02,454.117 1282.34,454.117C1308.6,454.117 1328.65,459.931 1342.46,471.56C1356.28,483.19 1363.19,500.086 1363.19,522.25L1363.19,582.584C1363.19,599.275 1360.59,612.546 1355.39,622.396C1350.19,632.247 1343.63,639.703 1335.69,644.765C1327.76,649.827 1319,653.042 1309.42,654.41C1299.85,655.779 1290.82,656.463 1282.34,656.463ZM1342.26,562.883C1337.06,562.062 1331.32,561.241 1325.02,560.42C1319.55,559.873 1313.19,559.326 1305.94,558.778C1298.68,558.231 1290.82,557.958 1282.34,557.958C1263.46,557.958 1250.12,561.31 1242.32,568.013C1234.52,574.717 1230.62,584.636 1230.62,597.77C1230.62,624.585 1247.86,637.993 1282.34,637.993C1303.68,637.993 1319,633.752 1328.31,625.269C1337.61,616.787 1342.26,603.379 1342.26,585.046L1342.26,562.883Z" style="fill:rgb(201,64,121);fill-rule:nonzero;"/>
            <path d="M1493.3,454.117C1504.25,454.117 1514.3,455.895 1523.47,459.453C1532.63,463.01 1540.5,468.003 1547.07,474.434C1553.63,480.864 1558.7,488.662 1562.25,497.828C1565.81,506.995 1567.59,517.187 1567.59,528.406L1567.59,654L1546.66,654L1546.66,531.279C1546.66,512.125 1541.87,497.486 1532.29,487.362C1522.72,477.238 1509.72,472.176 1493.3,472.176C1476.88,472.176 1463.89,477.238 1454.31,487.362C1444.73,497.486 1439.94,512.125 1439.94,531.279L1439.94,654L1419.01,654L1419.01,528.406C1419.01,505.969 1425.37,487.978 1438.1,474.434C1450.82,460.889 1469.22,454.117 1493.3,454.117Z" style="fill:rgb(201,64,121);fill-rule:nonzero;"/>
            <path d="M1712.48,546.055C1720.68,546.876 1728.35,548.175 1735.46,549.954C1742.57,551.733 1748.66,554.606 1753.72,558.573C1758.79,562.541 1762.82,567.671 1765.83,573.965C1768.84,580.258 1770.35,588.193 1770.35,597.77C1770.35,615.829 1763.23,630.126 1749,640.661C1734.78,651.195 1715.48,656.463 1691.13,656.463C1675.81,656.463 1662.26,654.616 1650.5,650.922C1638.73,647.228 1628.06,641.687 1618.48,634.299L1627.1,615.419C1642.43,630.468 1663.5,637.993 1690.31,637.993C1709.74,637.993 1724.51,634.641 1734.64,627.937C1744.76,621.233 1749.82,611.178 1749.82,597.77C1749.82,587.372 1746.82,579.574 1740.8,574.375C1734.78,569.176 1725.2,565.893 1712.06,564.525L1679.64,561.652C1639.96,558.368 1620.13,541.13 1620.13,509.936C1620.13,492.698 1626.56,479.085 1639.42,469.098C1652.28,459.111 1669.52,454.117 1691.13,454.117C1702.62,454.117 1713.71,455.485 1724.38,458.221C1735.05,460.958 1744.49,464.788 1752.7,469.714L1744.49,487.362C1729.44,476.965 1711.65,471.766 1691.13,471.766C1674.71,471.766 1662.2,475.049 1653.58,481.616C1644.96,488.183 1640.65,497.623 1640.65,509.936C1640.65,520.334 1643.86,528.132 1650.29,533.331C1656.72,538.53 1666.92,541.814 1680.87,543.182L1712.48,546.055Z" style="fill:rgb(201,64,121);fill-rule:nonzero;"/>
        </g>
        <g transform="matrix(0.462925,0,0,0.462925,975.577,912.527)">
            <path d="M1141.14,628.553C1134.03,640.045 1125.69,647.57 1116.11,651.127C1106.53,654.684 1095.45,656.463 1082.86,656.463C1059.06,656.463 1040.79,647.707 1028.07,630.195C1015.35,612.683 1008.99,587.646 1008.99,555.085C1008.99,522.523 1015.48,497.555 1028.48,480.18C1041.48,462.804 1060.84,454.117 1086.56,454.117C1112.83,454.117 1131.98,462.873 1144.02,480.385C1156.06,497.897 1162.08,522.797 1162.08,555.085L1162.08,658.515C1162.08,679.31 1155.85,695.317 1143.4,706.536C1130.95,717.755 1111.73,723.364 1085.74,723.364C1075.34,723.364 1066.24,722.475 1058.44,720.696C1050.64,718.918 1044.14,716.934 1038.95,714.745C1032.93,712.282 1027.73,709.409 1023.35,706.126L1031.15,688.887C1034.98,691.897 1039.63,694.633 1045.1,697.096C1049.76,699.285 1055.5,701.132 1062.34,702.637C1069.18,704.142 1076.98,704.894 1085.74,704.894C1105.99,704.894 1120.28,700.79 1128.63,692.581C1136.97,684.372 1141.14,672.333 1141.14,656.463L1141.14,628.553ZM1085.74,637.993C1097.78,637.993 1107.42,635.599 1114.67,630.81C1121.92,626.022 1127.53,619.728 1131.5,611.93C1135.47,604.132 1138.14,595.307 1139.5,585.457C1140.87,575.606 1141.56,565.482 1141.56,555.085C1141.56,544.96 1141.08,534.905 1140.12,524.917C1139.16,514.93 1136.84,506.037 1133.14,498.239C1129.45,490.441 1123.98,484.147 1116.72,479.359C1109.47,474.57 1099.42,472.176 1086.56,472.176C1074.52,472.176 1064.8,474.57 1057.42,479.359C1050.03,484.147 1044.28,490.441 1040.18,498.239C1036.07,506.037 1033.34,514.93 1031.97,524.917C1030.6,534.905 1029.92,544.96 1029.92,555.085C1029.92,565.482 1030.53,575.606 1031.76,585.457C1033,595.307 1035.6,604.132 1039.56,611.93C1043.53,619.728 1049.21,626.022 1056.6,630.81C1063.98,635.599 1073.7,637.993 1085.74,637.993Z" style="fill:rgb(80,80,80);fill-rule:nonzero;"/>
            <path d="M1375.92,456.169L1375.92,658.515C1375.92,679.31 1369.69,695.317 1357.24,706.536C1344.79,717.755 1325.43,723.364 1299.16,723.364C1288.77,723.364 1279.67,722.475 1271.87,720.696C1264.07,718.918 1257.57,716.934 1252.37,714.745C1246.35,712.282 1241.29,709.409 1237.19,706.126L1244.99,688.887C1249.09,691.897 1253.74,694.633 1258.94,697.096C1263.59,699.285 1269.27,701.132 1275.97,702.637C1282.68,704.142 1290.41,704.894 1299.16,704.894C1319.41,704.894 1333.78,700.79 1342.26,692.581C1350.74,684.372 1354.98,672.333 1354.98,656.463L1354.98,639.635C1348.69,645.107 1341.16,649.28 1332.41,652.153C1323.65,655.026 1313.39,656.463 1301.63,656.463C1290.68,656.463 1280.69,654.684 1271.66,651.127C1262.63,647.57 1254.84,642.508 1248.27,635.941C1241.7,629.374 1236.64,621.507 1233.08,612.341C1229.53,603.174 1227.75,592.982 1227.75,581.763L1227.75,456.169L1248.27,456.169L1248.27,578.89C1248.27,598.044 1253.06,612.683 1262.63,622.807C1272.21,632.931 1285.21,637.993 1301.63,637.993C1320.51,637.993 1334.12,633.889 1342.46,625.68C1350.81,617.471 1354.98,605.432 1354.98,589.561L1354.98,456.169L1375.92,456.169Z" style="fill:rgb(80,80,80);fill-rule:nonzero;"/>
            <path d="M1639.83,454.117C1650.77,454.117 1660.76,455.895 1669.79,459.453C1678.82,463.01 1686.62,468.003 1693.18,474.434C1699.75,480.864 1704.81,488.662 1708.37,497.828C1711.93,506.995 1713.71,517.187 1713.71,528.406L1713.71,654L1692.77,654L1692.77,531.279C1692.77,512.125 1687.99,497.486 1678.41,487.362C1668.83,477.238 1655.97,472.176 1639.83,472.176C1623.41,472.176 1610.41,477.238 1600.84,487.362C1591.26,497.486 1586.47,512.125 1586.47,531.279L1586.47,654L1565.54,654L1565.54,531.279C1565.54,512.125 1560.75,497.486 1551.17,487.362C1541.6,477.238 1528.6,472.176 1512.18,472.176C1495.76,472.176 1482.77,477.238 1473.19,487.362C1463.61,497.486 1458.82,512.125 1458.82,531.279L1458.82,654L1438.3,654L1438.3,528.406C1438.3,505.969 1444.6,487.978 1457.18,474.434C1469.77,460.889 1488.1,454.117 1512.18,454.117C1526.41,454.117 1538.93,456.99 1549.74,462.736C1560.54,468.482 1569.1,476.554 1575.39,486.952C1581.41,476.554 1589.75,468.482 1600.42,462.736C1611.1,456.99 1624.23,454.117 1639.83,454.117Z" style="fill:rgb(80,80,80);fill-rule:nonzero;"/>
            <path d="M1850.38,454.117C1861.33,454.117 1871.38,455.895 1880.55,459.453C1889.72,463.01 1897.58,468.003 1904.15,474.434C1910.72,480.864 1915.78,488.662 1919.34,497.828C1922.89,506.995 1924.67,517.187 1924.67,528.406L1924.67,654L1903.74,654L1903.74,531.279C1903.74,512.125 1898.95,497.486 1889.37,487.362C1879.8,477.238 1866.8,472.176 1850.38,472.176C1833.96,472.176 1820.97,477.238 1811.39,487.362C1801.81,497.486 1797.03,512.125 1797.03,531.279L1797.03,654L1776.09,654L1776.09,528.406C1776.09,505.969 1782.45,487.978 1795.18,474.434C1807.9,460.889 1826.3,454.117 1850.38,454.117Z" style="fill:rgb(80,80,80);fill-rule:nonzero;"/>
            <path d="M2048.21,656.463C2034.81,656.463 2023.52,655.026 2014.35,652.153C2005.18,649.28 1997.73,645.244 1991.98,640.045C1986.24,634.846 1982.06,628.69 1979.46,621.575C1976.87,614.461 1975.57,606.663 1975.57,598.18C1975.57,589.698 1976.87,581.968 1979.46,574.991C1982.06,568.013 1986.24,561.994 1991.98,556.932C1997.73,551.869 2005.18,547.97 2014.35,545.234C2023.52,542.498 2034.81,541.13 2048.21,541.13C2055.87,541.13 2063.33,541.472 2070.58,542.156C2077.83,542.84 2084.19,543.592 2089.67,544.413C2096.23,545.508 2102.39,546.465 2108.14,547.286L2108.14,524.712C2108.14,489.962 2088.03,472.587 2047.8,472.587C2037.13,472.587 2028.17,473.818 2020.92,476.281C2013.67,478.743 2006.21,482.984 1998.55,489.004L1990.34,470.945C1996.63,466.293 2004.78,462.326 2014.76,459.042C2024.75,455.759 2035.9,454.117 2048.21,454.117C2074.48,454.117 2094.52,459.931 2108.34,471.56C2122.16,483.19 2129.07,500.086 2129.07,522.25L2129.07,582.584C2129.07,599.275 2126.47,612.546 2121.27,622.396C2116.07,632.247 2109.51,639.703 2101.57,644.765C2093.63,649.827 2084.88,653.042 2075.3,654.41C2065.72,655.779 2056.7,656.463 2048.21,656.463ZM2108.14,562.883C2102.94,562.062 2097.19,561.241 2090.9,560.42C2085.43,559.873 2079.06,559.326 2071.81,558.778C2064.56,558.231 2056.7,557.958 2048.21,557.958C2029.33,557.958 2015.99,561.31 2008.19,568.013C2000.4,574.717 1996.5,584.636 1996.5,597.77C1996.5,624.585 2013.74,637.993 2048.21,637.993C2069.55,637.993 2084.88,633.752 2094.18,625.269C2103.49,616.787 2108.14,603.379 2108.14,585.046L2108.14,562.883Z" style="fill:rgb(80,80,80);fill-rule:nonzero;"/>
            <path d="M2280.52,546.055C2288.73,546.876 2296.39,548.175 2303.51,549.954C2310.62,551.733 2316.71,554.606 2321.77,558.573C2326.83,562.541 2330.87,567.671 2333.88,573.965C2336.89,580.258 2338.39,588.193 2338.39,597.77C2338.39,615.829 2331.28,630.126 2317.05,640.661C2302.82,651.195 2283.53,656.463 2259.18,656.463C2243.86,656.463 2230.31,654.616 2218.54,650.922C2206.78,647.228 2196.11,641.687 2186.53,634.299L2195.15,615.419C2210.47,630.468 2231.54,637.993 2258.36,637.993C2277.78,637.993 2292.56,634.641 2302.68,627.937C2312.81,621.233 2317.87,611.178 2317.87,597.77C2317.87,587.372 2314.86,579.574 2308.84,574.375C2302.82,569.176 2293.24,565.893 2280.11,564.525L2247.68,561.652C2208.01,558.368 2188.17,541.13 2188.17,509.936C2188.17,492.698 2194.6,479.085 2207.46,469.098C2220.32,459.111 2237.56,454.117 2259.18,454.117C2270.67,454.117 2281.75,455.485 2292.42,458.221C2303.09,460.958 2312.53,464.788 2320.74,469.714L2312.53,487.362C2297.49,476.965 2279.7,471.766 2259.18,471.766C2242.76,471.766 2230.24,475.049 2221.62,481.616C2213,488.183 2208.69,497.623 2208.69,509.936C2208.69,520.334 2211.91,528.132 2218.34,533.331C2224.77,538.53 2234.96,541.814 2248.92,543.182L2280.52,546.055Z" style="fill:rgb(80,80,80);fill-rule:nonzero;"/>
            <path d="M2429.1,658.515C2420.34,654.684 2413.78,648.733 2409.4,640.661C2405.02,632.589 2402.83,622.807 2402.83,611.314L2402.83,456.169L2423.76,456.169L2423.76,610.904C2423.76,618.839 2424.72,625.269 2426.64,630.195C2428.55,635.12 2432.11,638.677 2437.31,640.866L2429.1,658.515ZM2413.5,423.334C2409.67,423.334 2406.32,421.966 2403.45,419.23C2400.57,416.493 2399.14,413.21 2399.14,409.379C2399.14,405.548 2400.51,402.197 2403.24,399.323C2405.98,396.45 2409.26,395.014 2413.09,395.014C2416.92,395.014 2420.27,396.382 2423.15,399.118C2426.02,401.854 2427.46,405.138 2427.46,408.969C2427.46,412.799 2426.09,416.151 2423.35,419.024C2420.62,421.898 2417.33,423.334 2413.5,423.334Z" style="fill:rgb(80,80,80);fill-rule:nonzero;"/>
            <path d="M2575.62,656.463C2564.68,656.463 2554.62,654.684 2545.46,651.127C2536.29,647.57 2528.43,642.508 2521.86,635.941C2515.29,629.374 2510.23,621.507 2506.67,612.341C2503.11,603.174 2501.34,592.982 2501.34,581.763L2501.34,456.169L2522.27,456.169L2522.27,578.89C2522.27,598.044 2527.06,612.683 2536.63,622.807C2546.21,632.931 2559.21,637.993 2575.62,637.993C2591.77,637.993 2604.63,632.931 2614.21,622.807C2623.78,612.683 2628.57,598.044 2628.57,578.89L2628.57,456.169L2649.5,456.169L2649.5,581.763C2649.5,604.2 2643.21,622.259 2630.62,635.941C2618.04,649.622 2599.7,656.463 2575.62,656.463Z" style="fill:rgb(80,80,80);fill-rule:nonzero;"/>
            <path d="M2913.41,454.117C2924.36,454.117 2934.35,455.895 2943.38,459.453C2952.41,463.01 2960.2,468.003 2966.77,474.434C2973.34,480.864 2978.4,488.662 2981.96,497.828C2985.51,506.995 2987.29,517.187 2987.29,528.406L2987.29,654L2966.36,654L2966.36,531.279C2966.36,512.125 2961.57,497.486 2952,487.362C2942.42,477.238 2929.56,472.176 2913.41,472.176C2897,472.176 2884,477.238 2874.42,487.362C2864.85,497.486 2860.06,512.125 2860.06,531.279L2860.06,654L2839.13,654L2839.13,531.279C2839.13,512.125 2834.34,497.486 2824.76,487.362C2815.18,477.238 2802.19,472.176 2785.77,472.176C2769.35,472.176 2756.35,477.238 2746.78,487.362C2737.2,497.486 2732.41,512.125 2732.41,531.279L2732.41,654L2711.89,654L2711.89,528.406C2711.89,505.969 2718.18,487.978 2730.77,474.434C2743.36,460.889 2761.69,454.117 2785.77,454.117C2800,454.117 2812.52,456.99 2823.32,462.736C2834.13,468.482 2842.68,476.554 2848.98,486.952C2855,476.554 2863.34,468.482 2874.01,462.736C2884.68,456.99 2897.82,454.117 2913.41,454.117Z" style="fill:rgb(80,80,80);fill-rule:nonzero;"/>
        </g>
        <g transform="matrix(0.861382,0,0,0.861382,113.404,514.843)">
            <path d="M1005.1,556.076C1005.1,523.841 1012.28,499.123 1026.63,481.922C1040.99,464.721 1063.07,456.12 1092.86,456.12C1104.78,456.12 1115.28,457.949 1124.35,461.606C1133.43,465.263 1141.89,469.935 1149.75,475.624L1136.75,501.629C1130.79,496.211 1124.08,491.741 1116.63,488.22C1109.18,484.698 1101.26,482.938 1092.86,482.938C1073.36,482.938 1059.21,489.168 1050.4,501.629C1041.6,514.089 1037.2,532.238 1037.2,556.076C1037.2,579.914 1041.6,598.13 1050.4,610.726C1059.21,623.323 1073.36,629.621 1092.86,629.621C1101.26,629.621 1109.18,627.792 1116.63,624.135C1124.08,620.478 1130.79,615.941 1136.75,610.523L1149.75,636.528C1142.16,642.217 1133.77,646.957 1124.56,650.749C1115.35,654.542 1104.78,656.438 1092.86,656.438C1063.07,656.438 1040.99,647.77 1026.63,630.433C1012.28,613.097 1005.1,588.311 1005.1,556.076Z" style="fill:rgb(201,64,121);fill-rule:nonzero;"/>
            <path d="M1248.89,656.032C1235.08,656.032 1223.43,654.609 1213.95,651.765C1204.47,648.921 1196.81,644.858 1190.99,639.575C1185.17,634.293 1180.9,627.995 1178.19,620.681C1175.48,613.368 1174.13,605.377 1174.13,596.708C1174.13,588.04 1175.48,580.117 1178.19,572.938C1180.9,565.76 1185.17,559.597 1190.99,554.451C1196.81,549.304 1204.47,545.308 1213.95,542.464C1223.43,539.62 1235.08,538.198 1248.89,538.198C1254.58,538.198 1260.4,538.469 1266.36,539.01C1272.32,539.552 1277.74,540.094 1282.62,540.636C1288.31,541.448 1293.86,542.261 1299.28,543.074L1299.28,527.633C1299.28,498.107 1282.35,483.344 1248.49,483.344C1239.28,483.344 1230.95,484.563 1223.5,487.001C1216.05,489.439 1207.85,494.044 1198.91,500.816L1187.54,475.624C1194.85,470.206 1203.86,465.601 1214.56,461.809C1225.26,458.016 1236.7,456.12 1248.89,456.12C1275.71,456.12 1296.16,462.012 1310.25,473.795C1324.33,485.579 1331.38,502.712 1331.38,525.195L1331.38,582.081C1331.38,596.979 1329.28,609.169 1325.08,618.65C1320.88,628.131 1315.12,635.648 1307.81,641.201C1300.5,646.754 1291.76,650.614 1281.6,652.781C1271.44,654.948 1260.54,656.032 1248.89,656.032ZM1299.28,567.453C1296.84,566.911 1291.08,566.166 1282.01,565.218C1272.93,564.27 1261.89,563.796 1248.89,563.796C1233.45,563.796 1222.55,566.573 1216.18,572.126C1209.82,577.679 1206.63,585.738 1206.63,596.302C1206.63,618.514 1220.72,629.621 1248.89,629.621C1266.77,629.621 1279.64,625.964 1287.49,618.65C1295.35,611.336 1299.28,599.959 1299.28,584.519L1299.28,567.453Z" style="fill:rgb(201,64,121);fill-rule:nonzero;"/>
            <path d="M1477.25,490.658C1472.91,488.22 1468.51,486.324 1464.04,484.969C1459.57,483.615 1455.44,482.938 1451.65,482.938C1438.37,482.938 1427.74,487.339 1419.75,496.143C1411.76,504.947 1407.76,517.475 1407.76,533.728L1407.76,654L1375.26,654L1375.26,530.884C1375.26,508.401 1381.83,490.319 1394.96,476.64C1408.1,462.96 1427,456.12 1451.65,456.12C1457.34,456.12 1463.63,457.136 1470.54,459.168C1477.45,461.199 1483.61,463.705 1489.03,466.685L1477.25,490.658Z" style="fill:rgb(201,64,121);fill-rule:nonzero;"/>
            <path d="M1578.83,656.438C1551.74,656.438 1531.42,647.77 1517.88,630.433C1504.33,613.097 1497.56,588.311 1497.56,556.076C1497.56,523.841 1504.33,499.123 1517.88,481.922C1531.42,464.721 1551.74,456.12 1578.83,456.12C1605.91,456.12 1626.16,464.721 1639.57,481.922C1652.98,499.123 1659.68,523.841 1659.68,556.076C1659.68,588.311 1652.98,613.097 1639.57,630.433C1626.16,647.77 1605.91,656.438 1578.83,656.438ZM1578.83,482.938C1561.76,482.938 1549.3,489.168 1541.44,501.629C1533.59,514.089 1529.66,532.238 1529.66,556.076C1529.66,579.914 1533.59,598.13 1541.44,610.726C1549.3,623.323 1561.76,629.621 1578.83,629.621C1595.89,629.621 1608.29,623.323 1616.01,610.726C1623.73,598.13 1627.59,579.914 1627.59,556.076C1627.59,532.238 1623.73,514.089 1616.01,501.629C1608.29,489.168 1595.89,482.938 1578.83,482.938Z" style="fill:rgb(201,64,121);fill-rule:nonzero;"/>
            <path d="M1790.52,543.074C1798.92,543.886 1806.84,545.241 1814.29,547.137C1821.74,549.033 1828.11,551.945 1833.39,555.873C1838.67,559.801 1842.87,565.015 1845.99,571.516C1849.1,578.017 1850.66,586.279 1850.66,596.302C1850.66,614.993 1843.41,629.688 1828.92,640.388C1814.43,651.088 1794.72,656.438 1769.8,656.438C1754.63,656.438 1740.88,654.406 1728.56,650.343C1716.23,646.28 1704.79,640.185 1694.22,632.059L1706.82,605.241C1724.7,621.494 1745.42,629.621 1768.99,629.621C1785.24,629.621 1797.63,626.844 1806.16,621.291C1814.7,615.738 1818.96,607.408 1818.96,596.302C1818.96,580.32 1808.94,571.516 1788.9,569.891L1758.42,567.047C1717.25,563.525 1696.66,545.782 1696.66,513.818C1696.66,495.94 1703.3,481.854 1716.57,471.561C1729.84,461.267 1747.59,456.12 1769.8,456.12C1781.18,456.12 1792.49,457.746 1803.73,460.996C1814.97,464.247 1825.33,468.581 1834.81,473.998L1823.84,498.784C1815.17,492.825 1806.3,488.626 1797.23,486.188C1788.15,483.75 1779.01,482.531 1769.8,482.531C1756.53,482.531 1746.37,485.24 1739.33,490.658C1732.28,496.075 1728.76,503.796 1728.76,513.818C1728.76,521.945 1731.27,528.107 1736.28,532.306C1741.29,536.505 1749.48,539.146 1760.86,540.229L1790.52,543.074Z" style="fill:rgb(201,64,121);fill-rule:nonzero;"/>
            <path d="M1980.28,543.074C1988.67,543.886 1996.6,545.241 2004.05,547.137C2011.49,549.033 2017.86,551.945 2023.14,555.873C2028.42,559.801 2032.62,565.015 2035.74,571.516C2038.85,578.017 2040.41,586.279 2040.41,596.302C2040.41,614.993 2033.16,629.688 2018.67,640.388C2004.18,651.088 1984.47,656.438 1959.55,656.438C1944.38,656.438 1930.63,654.406 1918.31,650.343C1905.99,646.28 1894.54,640.185 1883.98,632.059L1896.57,605.241C1914.45,621.494 1935.17,629.621 1958.74,629.621C1974.99,629.621 1987.38,626.844 1995.92,621.291C2004.45,615.738 2008.72,607.408 2008.72,596.302C2008.72,580.32 1998.69,571.516 1978.65,569.891L1948.17,567.047C1907,563.525 1886.41,545.782 1886.41,513.818C1886.41,495.94 1893.05,481.854 1906.32,471.561C1919.6,461.267 1937.34,456.12 1959.55,456.12C1970.93,456.12 1982.24,457.746 1993.48,460.996C2004.72,464.247 2015.08,468.581 2024.56,473.998L2013.59,498.784C2004.92,492.825 1996.05,488.626 1986.98,486.188C1977.9,483.75 1968.76,482.531 1959.55,482.531C1946.28,482.531 1936.12,485.24 1929.08,490.658C1922.04,496.075 1918.51,503.796 1918.51,513.818C1918.51,521.945 1921.02,528.107 1926.03,532.306C1931.04,536.505 1939.24,539.146 1950.61,540.229L1980.28,543.074Z" style="fill:rgb(201,64,121);fill-rule:nonzero;"/>
            <path d="M2141.99,656.032C2128.18,656.032 2116.53,654.609 2107.05,651.765C2097.57,648.921 2089.91,644.858 2084.09,639.575C2078.27,634.293 2074,627.995 2071.29,620.681C2068.58,613.368 2067.23,605.377 2067.23,596.708C2067.23,588.04 2068.58,580.117 2071.29,572.938C2074,565.76 2078.27,559.597 2084.09,554.451C2089.91,549.304 2097.57,545.308 2107.05,542.464C2116.53,539.62 2128.18,538.198 2141.99,538.198C2147.68,538.198 2153.5,538.469 2159.46,539.01C2165.42,539.552 2170.84,540.094 2175.72,540.636C2181.41,541.448 2186.96,542.261 2192.38,543.074L2192.38,527.633C2192.38,498.107 2175.45,483.344 2141.59,483.344C2132.38,483.344 2124.05,484.563 2116.6,487.001C2109.15,489.439 2100.95,494.044 2092.01,500.816L2080.64,475.624C2087.95,470.206 2096.96,465.601 2107.66,461.809C2118.36,458.016 2129.8,456.12 2141.99,456.12C2168.81,456.12 2189.26,462.012 2203.35,473.795C2217.43,485.579 2224.47,502.712 2224.47,525.195L2224.47,582.081C2224.47,596.979 2222.38,609.169 2218.18,618.65C2213.98,628.131 2208.22,635.648 2200.91,641.201C2193.6,646.754 2184.86,650.614 2174.7,652.781C2164.54,654.948 2153.64,656.032 2141.99,656.032ZM2192.38,567.453C2189.94,566.911 2184.18,566.166 2175.11,565.218C2166.03,564.27 2154.99,563.796 2141.99,563.796C2126.55,563.796 2115.65,566.573 2109.28,572.126C2102.92,577.679 2099.73,585.738 2099.73,596.302C2099.73,618.514 2113.82,629.621 2141.99,629.621C2159.87,629.621 2172.74,625.964 2180.59,618.65C2188.45,611.336 2192.38,599.959 2192.38,584.519L2192.38,567.453Z" style="fill:rgb(201,64,121);fill-rule:nonzero;"/>
        </g>
    </g>
    <g transform="matrix(1.22118,0,0,1.22118,-370.739,-202.676)">
        <path d="M872.196,553.615C880.713,554.488 888.465,556.017 895.453,558.2C902.44,560.384 908.446,563.605 913.468,567.863C918.491,572.121 922.367,577.472 925.096,583.913C927.826,590.355 929.191,598.271 929.191,607.661C929.191,625.567 922.585,639.761 909.374,650.243C896.162,660.724 878.092,665.965 855.164,665.965C839.441,665.965 825.957,664.164 814.711,660.561C803.465,656.958 793.693,651.881 785.395,645.329L796.532,621.746C803.301,628.297 811.654,633.538 821.59,637.468C831.525,641.399 842.498,643.364 854.509,643.364C886.609,643.364 902.659,631.463 902.659,607.661C902.659,598.271 900.148,590.956 895.125,585.715C890.103,580.474 881.914,577.417 870.559,576.543L845.665,574.578C826.448,573.05 811.872,567.809 801.936,558.856C792.001,549.902 787.033,537.237 787.033,520.859C787.033,512.561 788.616,504.973 791.782,498.095C794.949,491.216 799.48,485.265 805.376,480.243C811.272,475.22 818.423,471.29 826.83,468.451C835.238,465.612 844.573,464.193 854.836,464.193C866.628,464.193 878.092,465.721 889.229,468.779C900.366,471.836 909.428,475.548 916.416,479.915L906.262,501.534C899.274,496.511 891.413,492.69 882.678,490.07C873.943,487.449 864.663,486.139 854.836,486.139C841.516,486.139 831.307,489.305 824.21,495.638C817.113,501.971 813.565,510.378 813.565,520.859C813.565,530.468 816.567,537.783 822.572,542.806C828.577,547.828 836.93,550.776 847.63,551.649L872.196,553.615Z" style="fill:rgb(80,80,80);fill-rule:nonzero;"/>
        <path d="M1038.92,665.965C1026.91,665.965 1017.3,662.854 1010.1,656.63C1002.89,650.407 998.195,641.836 996.011,630.917L962.929,465.831L988.805,465.831L1020.25,624.366C1021.34,630.044 1023.31,634.629 1026.15,638.123C1028.99,641.617 1033.24,643.364 1038.92,643.364C1044.16,643.364 1048.37,641.617 1051.53,638.123C1054.7,634.629 1056.83,630.044 1057.92,624.366L1089.04,465.831L1114.91,465.831L1081.5,630.917C1079.1,641.836 1074.35,650.407 1067.25,656.63C1060.16,662.854 1050.71,665.965 1038.92,665.965Z" style="fill:rgb(80,80,80);fill-rule:nonzero;"/>
        <path d="M1355.66,642.382L1355.66,664L1251.17,664C1245.5,664 1240.64,662.144 1236.6,658.432C1232.56,654.719 1230.54,650.134 1230.54,644.674C1230.54,629.825 1233,617.651 1237.91,608.152C1242.82,598.653 1249.05,590.683 1256.58,584.241C1264.11,577.799 1272.19,572.449 1280.82,568.191C1289.44,563.933 1297.52,559.784 1305.06,555.744C1312.59,551.704 1318.81,547.173 1323.73,542.15C1328.64,537.128 1331.1,530.686 1331.1,522.825C1331.1,511.906 1327.44,503.554 1320.12,497.767C1312.81,491.98 1302.49,489.087 1289.17,489.087C1281.53,489.087 1273.99,490.124 1266.57,492.199C1259.14,494.273 1251.83,498.04 1244.62,503.499L1235.12,482.863C1237.96,480.68 1241.51,478.66 1245.77,476.804C1250.03,474.948 1254.51,473.255 1259.2,471.727C1263.89,470.198 1268.81,468.997 1273.94,468.124C1279.07,467.25 1284.15,466.813 1289.17,466.813C1310.57,466.813 1327.28,471.672 1339.29,481.389C1351.3,491.107 1357.3,504.919 1357.3,522.825C1357.3,534.18 1354.79,543.406 1349.77,550.503C1344.75,557.6 1338.52,563.551 1331.1,568.355C1323.67,573.159 1315.59,577.472 1306.86,581.293C1298.12,585.114 1290.04,589.427 1282.62,594.231C1275.19,599.035 1268.97,604.931 1263.95,611.919C1258.93,618.907 1256.42,628.078 1256.42,639.434C1256.42,641.399 1257.29,642.382 1259.04,642.382L1355.66,642.382Z" style="fill:rgb(80,80,80);fill-rule:nonzero;"/>
        <path d="M1469.33,665.965C1456.44,665.965 1445.52,663.618 1436.57,658.923C1427.62,654.228 1420.36,647.513 1414.79,638.778C1409.22,630.044 1405.23,619.453 1402.83,607.006C1400.43,594.559 1399.23,580.583 1399.23,565.079C1399.23,549.575 1400.43,535.763 1402.83,523.644C1405.23,511.524 1409.22,501.261 1414.79,492.854C1420.36,484.447 1427.62,478.005 1436.57,473.528C1445.52,469.052 1456.44,466.813 1469.33,466.813C1482.21,466.813 1493.13,469.052 1502.08,473.528C1511.03,478.005 1518.29,484.447 1523.86,492.854C1529.43,501.261 1533.42,511.524 1535.82,523.644C1538.22,535.763 1539.42,549.575 1539.42,565.079C1539.42,580.583 1538.22,594.559 1535.82,607.006C1533.42,619.453 1529.43,630.044 1523.86,638.778C1518.29,647.513 1511.03,654.228 1502.08,658.923C1493.13,663.618 1482.21,665.965 1469.33,665.965ZM1469.33,488.759C1460.59,488.759 1453.38,490.452 1447.71,493.836C1442.03,497.221 1437.5,502.189 1434.11,508.74C1430.73,515.291 1428.38,523.316 1427.07,532.815C1425.76,542.314 1425.11,553.069 1425.11,565.079C1425.11,577.308 1425.76,588.281 1427.07,597.998C1428.38,607.716 1430.73,616.014 1434.11,622.892C1437.5,629.771 1442.03,635.066 1447.71,638.778C1453.38,642.491 1460.59,644.347 1469.33,644.347C1478.06,644.347 1485.27,642.491 1490.94,638.778C1496.62,635.066 1501.15,629.771 1504.54,622.892C1507.92,616.014 1510.27,607.716 1511.58,597.998C1512.89,588.281 1513.55,577.308 1513.55,565.079C1513.55,553.069 1512.89,542.314 1511.58,532.815C1510.27,523.316 1507.92,515.291 1504.54,508.74C1501.15,502.189 1496.62,497.221 1490.94,493.836C1485.27,490.452 1478.06,488.759 1469.33,488.759Z" style="fill:rgb(80,80,80);fill-rule:nonzero;"/>
        <path d="M1706.15,642.382L1706.15,664L1601.66,664C1595.98,664 1591.12,662.144 1587.08,658.432C1583.04,654.719 1581.02,650.134 1581.02,644.674C1581.02,629.825 1583.48,617.651 1588.39,608.152C1593.3,598.653 1599.53,590.683 1607.06,584.241C1614.6,577.799 1622.67,572.449 1631.3,568.191C1639.92,563.933 1648.01,559.784 1655.54,555.744C1663.07,551.704 1669.3,547.173 1674.21,542.15C1679.12,537.128 1681.58,530.686 1681.58,522.825C1681.58,511.906 1677.92,503.554 1670.61,497.767C1663.29,491.98 1652.97,489.087 1639.65,489.087C1632.01,489.087 1624.48,490.124 1617.05,492.199C1609.63,494.273 1602.31,498.04 1595.11,503.499L1585.61,482.863C1588.44,480.68 1591.99,478.66 1596.25,476.804C1600.51,474.948 1604.99,473.255 1609.68,471.727C1614.38,470.198 1619.29,468.997 1624.42,468.124C1629.55,467.25 1634.63,466.813 1639.65,466.813C1661.05,466.813 1677.76,471.672 1689.77,481.389C1701.78,491.107 1707.78,504.919 1707.78,522.825C1707.78,534.18 1705.27,543.406 1700.25,550.503C1695.23,557.6 1689,563.551 1681.58,568.355C1674.15,573.159 1666.08,577.472 1657.34,581.293C1648.61,585.114 1640.53,589.427 1633.1,594.231C1625.68,599.035 1619.45,604.931 1614.43,611.919C1609.41,618.907 1606.9,628.078 1606.9,639.434C1606.9,641.399 1607.77,642.382 1609.52,642.382L1706.15,642.382Z" style="fill:rgb(80,80,80);fill-rule:nonzero;"/>
        <path d="M1776.24,572.613C1770.13,572.613 1765.16,570.866 1761.34,567.372C1757.52,563.878 1755.61,559.074 1755.61,552.96L1755.61,488.104C1755.61,481.99 1757.52,477.24 1761.34,473.856C1765.16,470.471 1770.13,468.779 1776.24,468.779L1872.87,468.779L1872.87,490.397L1784.76,490.397C1782.57,490.397 1781.48,491.489 1781.48,493.673L1781.48,547.391C1781.48,549.575 1782.57,550.667 1784.76,550.667L1812.6,550.667C1833.13,550.667 1849.23,555.034 1860.91,563.769C1872.6,572.504 1878.44,586.37 1878.44,605.368C1878.44,625.458 1872.38,640.525 1860.26,650.57C1848.14,660.615 1830.73,665.638 1808.01,665.638C1802.99,665.638 1797.86,665.256 1792.62,664.491C1787.38,663.727 1782.25,662.635 1777.22,661.216C1772.2,659.796 1767.51,658.104 1763.14,656.139C1758.77,654.173 1755.17,652.099 1752.33,649.915L1761.83,629.279C1769.04,634.957 1776.62,638.888 1784.59,641.071C1792.57,643.255 1800.37,644.347 1808.01,644.347C1837.71,644.347 1852.56,631.354 1852.56,605.368C1852.56,594.886 1849.23,586.807 1842.57,581.129C1835.91,575.452 1826.03,572.613 1812.93,572.613L1776.24,572.613Z" style="fill:rgb(80,80,80);fill-rule:nonzero;"/>
        <path d="M1931.17,687.584L1906.61,687.584L1985.55,458.297L2009.46,458.297L1931.17,687.584Z" style="fill:rgb(80,80,80);fill-rule:nonzero;"/>
        <path d="M2157.84,642.382L2157.84,664L2053.35,664C2047.67,664 2042.82,662.144 2038.78,658.432C2034.74,654.719 2032.72,650.134 2032.72,644.674C2032.72,629.825 2035.17,617.651 2040.09,608.152C2045,598.653 2051.22,590.683 2058.76,584.241C2066.29,577.799 2074.37,572.449 2082.99,568.191C2091.62,563.933 2099.7,559.784 2107.23,555.744C2114.77,551.704 2120.99,547.173 2125.9,542.15C2130.82,537.128 2133.27,530.686 2133.27,522.825C2133.27,511.906 2129.62,503.554 2122.3,497.767C2114.99,491.98 2104.67,489.087 2091.35,489.087C2083.7,489.087 2076.17,490.124 2068.75,492.199C2061.32,494.273 2054.01,498.04 2046.8,503.499L2037.3,482.863C2040.14,480.68 2043.69,478.66 2047.95,476.804C2052.2,474.948 2056.68,473.255 2061.38,471.727C2066.07,470.198 2070.99,468.997 2076.12,468.124C2081.25,467.25 2086.32,466.813 2091.35,466.813C2112.75,466.813 2129.45,471.672 2141.46,481.389C2153.47,491.107 2159.48,504.919 2159.48,522.825C2159.48,534.18 2156.97,543.406 2151.95,550.503C2146.92,557.6 2140.7,563.551 2133.27,568.355C2125.85,573.159 2117.77,577.472 2109.03,581.293C2100.3,585.114 2092.22,589.427 2084.8,594.231C2077.37,599.035 2071.15,604.931 2066.13,611.919C2061.1,618.907 2058.59,628.078 2058.59,639.434C2058.59,641.399 2059.47,642.382 2061.21,642.382L2157.84,642.382Z" style="fill:rgb(80,80,80);fill-rule:nonzero;"/>
        <path d="M2271.17,546.409C2282.97,546.409 2293.07,547.883 2301.47,550.831C2309.88,553.779 2316.76,557.873 2322.11,563.114C2327.46,568.355 2331.39,574.633 2333.9,581.948C2336.41,589.263 2337.67,597.288 2337.67,606.023C2337.67,614.758 2336.41,622.783 2333.9,630.098C2331.39,637.414 2327.46,643.692 2322.11,648.933C2316.76,654.173 2309.88,658.268 2301.47,661.216C2293.07,664.164 2282.97,665.638 2271.17,665.638C2259.38,665.638 2249.23,664.164 2240.71,661.216C2232.2,658.268 2225.21,654.173 2219.75,648.933C2214.29,643.692 2210.3,637.414 2207.79,630.098C2205.28,622.783 2204.03,614.758 2204.03,606.023L2204.03,538.547C2204.03,525.445 2205.61,514.308 2208.78,505.137C2211.94,495.965 2216.47,488.541 2222.37,482.863C2228.26,477.186 2235.47,473.091 2243.99,470.58C2252.5,468.069 2262.11,466.813 2272.81,466.813C2277.62,466.813 2282.69,467.25 2288.04,468.124C2293.39,468.997 2298.58,470.198 2303.6,471.727C2308.62,473.255 2313.26,474.948 2317.52,476.804C2321.78,478.66 2325.44,480.68 2328.5,482.863L2318.67,503.499C2311.68,498.04 2304.2,494.273 2296.23,492.199C2288.26,490.124 2280.45,489.087 2272.81,489.087C2266.04,489.087 2259.98,489.851 2254.63,491.38C2249.28,492.908 2244.81,495.529 2241.2,499.241C2237.6,502.953 2234.82,507.976 2232.85,514.308C2230.89,520.641 2229.9,528.721 2229.9,538.547L2229.9,558.528C2239.95,550.448 2253.7,546.409 2271.17,546.409ZM2271.17,644.347C2286.46,644.347 2297.11,640.689 2303.11,633.374C2309.12,626.058 2312.12,616.942 2312.12,606.023C2312.12,600.564 2311.41,595.541 2309.99,590.956C2308.57,586.37 2306.28,582.385 2303.11,579C2299.94,575.615 2295.74,572.94 2290.5,570.975C2285.26,569.01 2278.82,568.027 2271.17,568.027C2263.31,568.027 2256.76,569.01 2251.52,570.975C2246.28,572.94 2242.08,575.615 2238.91,579C2235.74,582.385 2233.45,586.37 2232.03,590.956C2230.61,595.541 2229.9,600.564 2229.9,606.023C2229.9,611.482 2230.61,616.559 2232.03,621.254C2233.45,625.949 2235.74,629.989 2238.91,633.374C2242.08,636.759 2246.28,639.434 2251.52,641.399C2256.76,643.364 2263.31,644.347 2271.17,644.347Z" style="fill:rgb(80,80,80);fill-rule:nonzero;"/>
    </g>
    <g transform="matrix(0.180117,0,0,0.180887,-3.60424,-3.02553)">
        <path d="M14228.5,164C22062.1,164 28422,1845.44 28422,3916.5C28422,5987.56 22062.1,7669 14228.5,7669C6394.89,7669 35,5987.56 35,3916.5C35,1845.44 6394.89,164 14228.5,164ZM14201.5,236.698C6905.46,236.698 982,1859.05 982,3905C982,5950.95 6905.46,7589.89 14201.5,7589.89C21497.5,7589.89 27421,5950.95 27421,3905C27421,1859.05 21497.5,236.698 14201.5,236.698Z" style="fill:rgb(201,64,121);stroke:black;stroke-width:27.7px;"/>
    </g>
</svg>
